/* XPM */
static char *_16fa3f232ee44738b175baa10024399w4uvor8nnbbxb6TN[] = {
/* columns rows colors chars-per-pixel */
"22 16 2 1 ",
"  c None",
". c white",
/* pixels */
"            ..        ",
"    ...    .  . ...   ",
"   .   ....    .   .  ",
"   .      .   ...  .  ",
"   .      .  .   ...  ",
"    .      ...   .  . ",
"   .          ...   . ",
"   .            .  .  ",
"   .             ..   ",
"  .    .      .    .  ",
" ...   .      .   ... ",
".  .      ..     ..  .",
"  ..              ..  ",
" .  .            .  . ",
"     ..        ..     ",
"       ........       "
};
