/* XPM */
static char *_34e3dda8ca148f8fad87714fa6dd148F22fLreIAyTx4yoP[] = {
/* columns rows colors chars-per-pixel */
"64 64 7 1 ",
"  c #25263B",
". c #503344",
"X c #394441",
"o c #64615C",
"O c #737675",
"+ c #908B92",
"@ c #9FB7BF",
/* pixels */
"+O O@++++++O O@++++OXXX XXXO++++O O@+++++++O O@+++OXXX XXXO+++++",
"O+.@OOOOOOO+.@OOOOOoooo.ooooOOOO+.@OOOOOOOO+.@OOOOoooo.ooooOOOOO",
"OO.+OOOOOOOO.+OOOOOOOOOX+OOOOOOOO.+OOOOOOOOO.+OOOOOOOO.+OOOOOOOO",
"OoX+OOOOOOOo.+OOOOOOOOoX+OOOOOOOoX+OOOOOOOOoX+OOOOOOOoX+OOOOOOOO",
"OoX+OOOOOOooX+OOOOOOOOoX+OOOOOOOoX+OOOOOOOOoX+OOOOOOOoX+OOOOOOOO",
"OoX+OOOOOo.o.+OOOOOOOOoX+OOOOOOOoX+OOOOOOOOoX+OOOOOOOoX+OOooOOOO",
"oX O+OoOoooX O+OOoooooX O+OoOoooX O+OOoooooX O+OoOoooX O+OOooooo",
".   .X  XX.   .XX XXX.   .X  XX.   .XX XXX.   .X  XX.   .XX XXX.",
"+++++O O@+++++++O O@++++++++O O@+++++++O O@++++++++O O@+++++++O ",
"OOOOO+.@OOOOOOOO+.@OOOOOOOOO+.@OOOOOOOO+.@OOOOOoOOO+.@OOOOOOOO+.",
"OOOOOO.+OOOOOOOOO.+OOOOOooOOO.+OOOOOOOOO.+OOOOO@oOOO.+OOOOOOOOO.",
"OOOOOoX+OOOOOOOOoX+OOOOo@+OOoX+OOOOOOOOoX+OOOOO+oOOoX+OOOOOOOOoX",
"OOOOOoX+OOOOOOOOoX+OOOo+OOOOoX+OOOOOOOOoX+OOOOOOOOOoX+OOOOOOOOoX",
"OOOOOoX+OOOOOOOOoX+OOOOOOOOOoX+OOoOOOOOoX+OOOOOOOOOoX+OOoOOOOOoX",
"OooooX O+OOoooooX O+OOOOOOOoo O+OOoooooX O+OOoOooooX O+OOoooooX ",
"  .X    .XX XXX.   XOOooooooX  .XX XXX.   X..   .X     XXX.   .X",
"+O O@++++++O O@+++++XX  ..XX++++O O@+++++++O O@++++++O O@+++++++",
"O+.@OOOOOOO+.@OOOOOOOO+ @OOOOOOO+.@OOOoOOOO+.@OOOOOOO+.@OOOOOOOO",
"OO.+OOOOOOOO.+OOOOOOOOO.+OOOOOOOO.+OOo@OOOOO.+OOOOOOOO.+OOOOOooO",
"OoX+OOOOOOOo.+OOOOOOOOoX+OOOOOOOoX+OOo+OOOOoX+OOOOOOOoX+OOOOo@+O",
"OoX+OOOOOOOoX+OOOOOOOOoX+OOOOOOOoX+OoOOOOOOoX+OOOOOOOoX+OOOo+OOO",
"OoX+OOOOOOOo.+OOOOOOOOoX+OOOOOOOoX+OOOOOOOOoX+OOOOOOOoX+OOOOOOOO",
"oX O+OoOoooX O+OOoooooX O+OoOoooX O+OOoooooX O+OoOoooX O+OOOOOOO",
"  X..   ..X  X..   ..X   X..   ..X  X..   ..X   X..     XOOooooo",
"+++++O O@+++++++O O@++++++++O O@+++++++O O@++++++++O O++oXX  ..X",
"OooOO+.@OOOOOOOO+.@OOOOOOOOO+.@OOOOOOOO+.@OOOOOOOOO+.@OOOOOoooo.",
"O+ooOO.+OOOOOOOOO.+OOOOOOOOOO.+OOOOOOOOO.+OOOOOOOOOO.+OOOOOOOOO.",
"OO+OOoX+OOOOOOOOoX+OOOOOOOOOoX+OOOOOOOOoX+OOOOOOOOOoX+OOOOOOOOoX",
"OOOOOoX+OOOOOOOOoX+OOOOOOOOOoX+OOOOOOOOoX+OOOOOOOOOoX+OOOOOOOOoX",
"OOOOOoX+OooOOOOOoX+OOOOOOOOOoX+OOoOOOOOoX+OOOOOOOOOoX+OOOOOOOOoX",
"OooooX O+OOoooooX O+OOoOooooX O+OOoooooX O+OOoOooooX O+OOoooooX ",
"   XX.   .  XXX.   X..   .X    .XX XXX.   X..   .X    .XX XXX.  ",
"+O O@++++++O O@+++++++O O@++++++O O@+++++++O O@++++++O O@+++++++",
"O+.@OOOOOOO+.@OOOOOOOO+.@OOOOOOO+.@OOOOOOOO+.@OOOOOOO+.@OOOOOOOO",
"OO.+OOOOooOO.+OOOOOOOOO.+OOOOOOOO.+OOOOOOOOO.+OOOOOOOO.+OOOOOOOO",
"OoX+OOOo@+OoX+OOOOOOOOoX+OOOOOOOoX+OOOOOOOOoX+OOOOOOOoX+OOOOOOOO",
"OoX+OOo+OOOoX+OOOOOOOOoX+OOOOOOOoX+OOOOOOOOoX+OOOOOOOoX+OOOOOOOO",
"OoX+OOOOOOOoX+OOOOOOOOoX+OoOOOOOoX+OOOOOOoooX+OOOOOOOoX+OOOOOOoo",
"oX O+OOOOOoo O+OOoooooX O+OoOoooX O+OOoooooX O+OoOoooX O+OOooooo",
".   XOoooooX  X     ..X   X.. XXX.   .X  X ..X   X..   ..X  X.. ",
"+++ooX          .  O@++++++++ O@++++++++O O@++++++++O O@+++++++O",
"OOOOoo+ X . XXX.X. @OOOOOOOOO.@OOOOOOOOO+.@OOOOOOOOO+.@OOOOOOOO+",
"OOOOOOO X. X.XoooX +OOOOOOOOO.+OOOOOooOOO.+OOOOOOOOOO.+OOOOOOOOO",
"OOOOOOoX  X.XooOoXX+OOOOOOOOOX+OOOOo@+OOoX+OOOOOOOOOoX+OOOOOOOOo",
"OOOOOOoX .XXoOooXXX+OOOOOOOOOX+OOOo+OOOOoX+OOOOOOOOooX+OOOOOOOOo",
"OOOOOooX  XXoooXX. +OOOOOOOOOX+OOOOOOOOOoX+OOOOOOOo.oX+OOOOOOOoo",
"OOooooX  . XXXX.   O+OOoOoooo O+OOOOOOOoo O+OOoOooooX O+OOoooooX",
".  .X     . .       X..   .X   XOOooooooX  X..   .X    .XX XXX. ",
"++O O@++++++O O@+++++++O O@+++++XX  ..XX++++O O@++++++O O@++++++",
"+O+.@OOOOOOO+.@OOOOooOO+.@OOOOOOO+.@OOOoOOOO+.@OOOOOOO+.@OOOOOOO",
"+OO.+OOOOOOOO.+OOOOOOOoO.+OOOOOOOO.+OOo@OOOOO.+OOOOOOOO.+OOOOOOO",
"+OoX+OOOOOOOo.+OOOOOOOOoX+OOOOOOOoX+OOo+OOOOoX+OOOOOOOoX+OOOOOOo",
"+OoX+OOOOOOOoX+OOOOOOOOoX+OOOOOOOoX+OoOOOOOOoX+OOOOOOOoX+OOOOOOo",
"+OoX+OOOOOOOo.+OOOOOOOOoX+OOOOOOOoX+OOOOOOOOoX+OOOOOOOoX+OOOOOoo",
"+oX O+OoOoooX O+OOoooooX O+OoOoooX O+OOoooooX O+OoOoooX O+OOoooo",
"  X..   ..X  X..   ..X   X..   ..X  X..   ..X   X..   ..X  X..  ",
"+++++O O@+++++++O O@++++++++O O@+++++++O O@++++++++O O@+++++++O ",
"OOOOO+.@OOoOOOOO+.@OOOOOOOOO+.@OOOOOOOO+.@OOOOOOOOO+.@OOOOOOOO+.",
"OOOOOO.+Oo@OOOOOO.+OOOOOOOOOO.+OOOOOOOOO.+OOOOOOOOOO.+OOOOOOOOO.",
"OOOOOoX+Oo+OOOOOoX+OOOOOOOOOoX+OOOOOOOOoX+OOOOOOOOOoX+OOOOOOOOoX",
"OOOOOoX+OOOOOOOOoX+OOOOOOOOOoX+OOOOOOOOoX+OOOOOOOOOoX+OOOOOOOOoX",
"OOOOOoX+OOOOOOOOoX+OOOOOOOOOoX+OOOOOOOOoX+OooOOOOOOoX+OOOOOOOOoX",
"OooooX O+OOoooooX O+OOoOooooX O+OOoooooX O+OOoOooooX O+OOoooooX ",
"  .X    .XX XXX.   X..   .X    .XX XXX.   X..   .X    .XX XXX.  "
};
